<svg width="70" height="70" viewBox="0 0 70 70" fill="none" xmlns="http://www.w3.org/2000/svg">
<rect y="34.3174" width="48.5321" height="49.8803" rx="15" transform="rotate(-45 0 34.3174)" fill="white"/>
<path d="M48.3332 34C48.3332 26.64 42.3598 20.6666 34.9998 20.6666C27.6398 20.6666 21.6665 26.64 21.6665 34C21.6665 40.4533 26.2532 45.8266 32.3332 47.0666V38H29.6665V34H32.3332V30.6666C32.3332 28.0933 34.4265 26 36.9998 26H40.3332V30H37.6665C36.9332 30 36.3332 30.6 36.3332 31.3333V34H40.3332V38H36.3332V47.2666C43.0665 46.6 48.3332 40.92 48.3332 34Z" fill="#3284AE"/>
</svg>
