<svg width="155" height="155" viewBox="0 0 155 155" fill="none" xmlns="http://www.w3.org/2000/svg">
<rect y="76.4399" width="108" height="111" rx="40" transform="rotate(-45 0 76.4399)" fill="white"/>
<path d="M101.218 78.0179C101.218 93.1817 90.4201 105.036 77.6089 105.036C64.7976 105.036 54 93.1817 54 78.0179C54 62.8541 64.7976 51 77.6089 51C90.4201 51 101.218 62.8541 101.218 78.0179Z" stroke="#3284AE" stroke-width="4"/>
<path d="M89.7691 78.0179C89.7691 85.8002 88.2584 92.7476 85.9052 97.6747C83.4817 102.749 80.5232 105.036 77.9102 105.036C75.2972 105.036 72.3387 102.749 69.9152 97.6747C67.562 92.7476 66.0513 85.8002 66.0513 78.0179C66.0513 70.2357 67.562 63.2883 69.9152 58.3611C72.3387 53.2866 75.2972 51 77.9102 51C80.5232 51 83.4817 53.2866 85.9052 58.3611C88.2584 63.2883 89.7691 70.2357 89.7691 78.0179Z" stroke="#3284AE" stroke-width="4"/>
<path d="M77.4589 51.599C88.9909 51.6265 97.8261 59.7182 97.8029 69.1061C97.7797 78.494 88.9046 86.5434 77.3726 86.5158C65.8405 86.4883 57.0053 78.3967 57.0285 69.0088C57.0517 59.6208 65.9268 51.5715 77.4589 51.599Z" stroke="#3284AE" stroke-width="4"/>
</svg>
