<svg width="70" height="70" viewBox="0 0 70 70" fill="none" xmlns="http://www.w3.org/2000/svg">
<rect y="34.3174" width="48.5321" height="49.8803" rx="15" transform="rotate(-45 0 34.3174)" fill="white"/>
<g clip-path="url(#clip0_705_8)">
<path d="M40.0667 27.0667H41.8M28.8 21.8667H39.2C41.0389 21.8667 42.8024 22.5972 44.1026 23.8974C45.4029 25.1977 46.1334 26.9612 46.1334 28.8V39.2C46.1334 41.0389 45.4029 42.8024 44.1026 44.1026C42.8024 45.4029 41.0389 46.1334 39.2 46.1334H28.8C26.9612 46.1334 25.1977 45.4029 23.8974 44.1026C22.5972 42.8024 21.8667 41.0389 21.8667 39.2V28.8C21.8667 26.9612 22.5972 25.1977 23.8974 23.8974C25.1977 22.5972 26.9612 21.8667 28.8 21.8667ZM34 39.2C32.6209 39.2 31.2983 38.6522 30.3231 37.677C29.3479 36.7018 28.8 35.3792 28.8 34C28.8 32.6209 29.3479 31.2983 30.3231 30.3231C31.2983 29.3479 32.6209 28.8 34 28.8C35.3792 28.8 36.7018 29.3479 37.677 30.3231C38.6522 31.2983 39.2 32.6209 39.2 34C39.2 35.3792 38.6522 36.7018 37.677 37.677C36.7018 38.6522 35.3792 39.2 34 39.2Z" stroke="#3284AE" stroke-width="2"/>
</g>
<defs>
<clipPath id="clip0_705_8">
<rect width="26" height="26" fill="white" transform="translate(21 21)"/>
</clipPath>
</defs>
</svg>
