<svg width="70" height="70" viewBox="0 0 70 70" fill="none" xmlns="http://www.w3.org/2000/svg">
<rect y="34.3174" width="48.5321" height="49.8803" rx="15" transform="rotate(-45 0 34.3174)" fill="white"/>
<path d="M44.3333 22C45.0406 22 45.7189 22.281 46.219 22.781C46.719 23.2811 47 23.9594 47 24.6667V43.3333C47 44.0406 46.719 44.7189 46.219 45.219C45.7189 45.719 45.0406 46 44.3333 46H25.6667C24.9594 46 24.2811 45.719 23.781 45.219C23.281 44.7189 23 44.0406 23 43.3333V24.6667C23 23.9594 23.281 23.2811 23.781 22.781C24.2811 22.281 24.9594 22 25.6667 22H44.3333ZM43.6667 42.6667V35.6C43.6667 34.4472 43.2087 33.3416 42.3936 32.5264C41.5784 31.7113 40.4728 31.2533 39.32 31.2533C38.1867 31.2533 36.8667 31.9467 36.2267 32.9867V31.5067H32.5067V42.6667H36.2267V36.0933C36.2267 35.0667 37.0533 34.2267 38.08 34.2267C38.5751 34.2267 39.0499 34.4233 39.3999 34.7734C39.75 35.1235 39.9467 35.5983 39.9467 36.0933V42.6667H43.6667ZM28.1733 29.4133C28.7674 29.4133 29.3372 29.1773 29.7573 28.7573C30.1773 28.3372 30.4133 27.7674 30.4133 27.1733C30.4133 25.9333 29.4133 24.92 28.1733 24.92C27.5757 24.92 27.0026 25.1574 26.58 25.58C26.1574 26.0026 25.92 26.5757 25.92 27.1733C25.92 28.4133 26.9333 29.4133 28.1733 29.4133ZM30.0267 42.6667V31.5067H26.3333V42.6667H30.0267Z" fill="#3284AE"/>
</svg>
