<svg width="70" height="70" viewBox="0 0 70 70" fill="none" xmlns="http://www.w3.org/2000/svg">
<rect y="34.3174" width="48.5321" height="49.8803" rx="15" transform="rotate(-45 0 34.3174)" fill="white"/>
<path d="M44.4001 24.5467C43.1777 23.3119 41.7216 22.3329 40.1169 21.6668C38.5122 21.0006 36.7909 20.6607 35.0534 20.6667C27.7734 20.6667 21.8401 26.6 21.8401 33.88C21.8401 36.2134 22.4534 38.48 23.6001 40.48L21.7334 47.3334L28.7334 45.4934C30.6667 46.5467 32.8401 47.1067 35.0534 47.1067C42.3334 47.1067 48.2667 41.1734 48.2667 33.8934C48.2667 30.36 46.8934 27.04 44.4001 24.5467ZM35.0534 44.8667C33.0801 44.8667 31.1467 44.3334 29.4534 43.3334L29.0534 43.0934L24.8934 44.1867L26.0001 40.1334L25.7334 39.72C24.6371 37.9693 24.0549 35.9457 24.0534 33.88C24.0534 27.8267 28.9867 22.8934 35.0401 22.8934C37.9734 22.8934 40.7334 24.04 42.8001 26.12C43.8234 27.1387 44.6343 28.3503 45.1859 29.6846C45.7375 31.019 46.0188 32.4495 46.0134 33.8934C46.0401 39.9467 41.1067 44.8667 35.0534 44.8667ZM41.0801 36.6534C40.7467 36.4934 39.1201 35.6934 38.8267 35.5734C38.5201 35.4667 38.3067 35.4134 38.0801 35.7334C37.8534 36.0667 37.2267 36.8134 37.0401 37.0267C36.8534 37.2534 36.6534 37.28 36.3201 37.1067C35.9867 36.9467 34.9201 36.5867 33.6667 35.4667C32.6801 34.5867 32.0267 33.5067 31.8267 33.1734C31.6401 32.84 31.8001 32.6667 31.9734 32.4934C32.1201 32.3467 32.3067 32.1067 32.4667 31.92C32.6267 31.7334 32.6934 31.5867 32.8001 31.3734C32.9067 31.1467 32.8534 30.96 32.7734 30.8C32.6934 30.64 32.0267 29.0134 31.7601 28.3467C31.4934 27.7067 31.2134 27.7867 31.0134 27.7734H30.3734C30.1467 27.7734 29.8001 27.8534 29.4934 28.1867C29.2001 28.52 28.3467 29.32 28.3467 30.9467C28.3467 32.5734 29.5334 34.1467 29.6934 34.36C29.8534 34.5867 32.0267 37.92 35.3334 39.3467C36.1201 39.6934 36.7334 39.8934 37.2134 40.04C38.0001 40.2934 38.7201 40.2534 39.2934 40.1734C39.9334 40.08 41.2534 39.3734 41.5201 38.6C41.8001 37.8267 41.8001 37.1734 41.7067 37.0267C41.6134 36.88 41.4134 36.8134 41.0801 36.6534Z" fill="#3284AE"/>
</svg>
